<?xml version="1.0" encoding="UTF-8" standalone="no"?>
<!-- Created with Inkscape (http://www.inkscape.org/) -->

<svg
   xmlns:dc="http://purl.org/dc/elements/1.1/"
   xmlns:cc="http://creativecommons.org/ns#"
   xmlns:rdf="http://www.w3.org/1999/02/22-rdf-syntax-ns#"
   xmlns:svg="http://www.w3.org/2000/svg"
   xmlns="http://www.w3.org/2000/svg"
   xmlns:sodipodi="http://sodipodi.sourceforge.net/DTD/sodipodi-0.dtd"
   xmlns:inkscape="http://www.inkscape.org/namespaces/inkscape"
   width="210mm"
   height="297mm"
   viewBox="0 0 210 297"
   version="1.1"
   id="svg8"
   inkscape:version="0.92.2 (5c3e80d, 2017-08-06)"
   sodipodi:docname="logo_AC.svg">
  <defs
     id="defs2" />
  <sodipodi:namedview
     id="base"
     pagecolor="#ffffff"
     bordercolor="#666666"
     borderopacity="1.0"
     inkscape:pageopacity="0.0"
     inkscape:pageshadow="2"
     inkscape:zoom="0.35"
     inkscape:cx="400"
     inkscape:cy="535.71429"
     inkscape:document-units="mm"
     inkscape:current-layer="layer1"
     showgrid="false"
     inkscape:snap-text-baseline="true"
     inkscape:snap-grids="true"
     inkscape:snap-page="false"
     inkscape:window-width="1366"
     inkscape:window-height="705"
     inkscape:window-x="-8"
     inkscape:window-y="-8"
     inkscape:window-maximized="1" />
  <metadata
     id="metadata5">
    <rdf:RDF>
      <cc:Work
         rdf:about="">
        <dc:format>image/svg+xml</dc:format>
        <dc:type
           rdf:resource="http://purl.org/dc/dcmitype/StillImage" />
        <dc:title></dc:title>
      </cc:Work>
    </rdf:RDF>
  </metadata>
  <g
     inkscape:label="Layer 1"
     inkscape:groupmode="layer"
     id="layer1">
    <rect
       style="fill:#333333;stroke-width:0.21326062"
       id="rect4096"
       width="87.690475"
       height="52.160717"
       x="3.0238097"
       y="1.422616" />
    <flowRoot
       xml:space="preserve"
       id="flowRoot3703"
       style="fill:black;fill-opacity:1;stroke:none;font-family:sans-serif;font-style:normal;font-weight:normal;font-size:40px;line-height:1.25;letter-spacing:0px;word-spacing:0px"><flowRegion
         id="flowRegion3705"><rect
           id="rect3707"
           width="71.428574"
           height="174.28572"
           x="17.142857"
           y="359.66254" /></flowRegion><flowPara
         id="flowPara3709"></flowPara></flowRoot>    <flowRoot
       xml:space="preserve"
       id="flowRoot3711"
       style="fill:black;fill-opacity:1;stroke:none;font-family:sans-serif;font-style:normal;font-weight:normal;font-size:40px;line-height:1.25;letter-spacing:0px;word-spacing:0px"><flowRegion
         id="flowRegion3713"><rect
           id="rect3715"
           width="77.14286"
           height="102.85714"
           x="8.5714283"
           y="356.80539" /></flowRegion><flowPara
         id="flowPara3717"></flowPara></flowRoot>    <flowRoot
       xml:space="preserve"
       id="flowRoot3719"
       style="fill:black;fill-opacity:1;stroke:none;font-family:sans-serif;font-style:normal;font-weight:normal;font-size:40px;line-height:1.25;letter-spacing:0px;word-spacing:0px"><flowRegion
         id="flowRegion3721"><rect
           id="rect3723"
           width="300"
           height="345.71429"
           x="85.714287"
           y="353.94824" /></flowRegion><flowPara
         id="flowPara3725"></flowPara></flowRoot>    <flowRoot
       xml:space="preserve"
       id="flowRoot3727"
       style="fill:black;fill-opacity:1;stroke:none;font-family:sans-serif;font-style:normal;font-weight:normal;font-size:40px;line-height:1.25;letter-spacing:0px;word-spacing:0px"><flowRegion
         id="flowRegion3729"><rect
           id="rect3731"
           width="180"
           height="71.428574"
           x="357.14285"
           y="268.23398" /></flowRegion><flowPara
         id="flowPara3733"></flowPara></flowRoot>    <flowRoot
       xml:space="preserve"
       id="flowRoot3735"
       style="fill:black;fill-opacity:1;stroke:none;font-family:sans-serif;font-style:normal;font-weight:normal;font-size:40px;line-height:1.25;letter-spacing:0px;word-spacing:0px"><flowRegion
         id="flowRegion3737"><rect
           id="rect3739"
           width="245.71428"
           height="165.71428"
           x="94.285713"
           y="191.09111" /></flowRegion><flowPara
         id="flowPara3741"></flowPara></flowRoot>    <path
       style="fill:#999999;stroke-width:0.75595242"
       d="m 57.843638,44.133868 c -7.467488,-2.65355 -11.744459,-8.6152 -11.744459,-16.37056 0,-12.961707 13.948767,-21.6949988 25.286676,-15.831938 3.453619,1.785934 2.346512,1.928907 -2.359211,0.30467 -2.282314,-0.787768 -4.921699,-1.443413 -5.865299,-1.456986 l -1.715635,-0.02469 0.203732,16.441964 0.203729,16.44197 4.463386,-0.0953 c 2.94377,-0.0629 4.056221,0.13253 3.267469,0.57393 -2.572887,1.43986 -7.715242,1.4473 -11.740388,0.017 z"
       id="path3747"
       inkscape:connector-curvature="0" />
    <path
       style="fill:#cccccc;stroke-width:0.75595242"
       d="M 37.192857,42.395238 36.25348,40.12738 h -8.979718 c -4.938842,0 -8.979714,-0.275161 -8.979714,-0.611468 0,-0.336306 0.52788,-1.271799 1.17307,-2.078868 1.140052,-1.426099 1.159896,-1.419526 0.705011,0.23349 -0.462931,1.682252 -0.384646,1.700895 7.142406,1.700895 4.185756,0 7.610464,-0.242954 7.610464,-0.539896 0,-0.488381 -5.915607,-12.27904 -6.515325,-12.985985 -0.13844,-0.16319 -0.825518,0.176988 -1.526839,0.755954 -0.701323,0.578964 -1.134766,0.693486 -0.96321,0.254492 0.736947,-1.885759 9.333722,-16.208824 9.717143,-16.189711 0.232188,0.01156 3.055128,4.859118 6.273199,10.772323 3.218072,5.913199 7.405256,13.557747 9.304854,16.987882 l 3.453815,6.236607 h -8.2682 -8.268203 z"
       id="path3749"
       inkscape:connector-curvature="0" />
  </g>
</svg>
